<svg xmlns="http://www.w3.org/2000/svg" width="209.23339" height="209.2359" viewBox="0 0 209.23339 209.2359">
  <defs>
    <style>
      .ee6e55f2-7a77-4e04-a6cb-9638a80c08eb {
        fill: #4c56c0;
      }

      .a35586bf-8661-4aec-998c-b3a45783a831 {
        fill: #f9617d;
      }
    </style>
  </defs>
  <g id="abfa44b6-7f6f-42a0-a667-e5a80706ffb2" data-name="Layer 2">
    <g id="b8a6a70e-6197-4b80-8efd-8292ba9d0034" data-name="Layer 1">
      <g>
        <rect class="ee6e55f2-7a77-4e04-a6cb-9638a80c08eb" width="209.23339" height="209.2359" rx="33.904"/>
        <g>
          <path class="a35586bf-8661-4aec-998c-b3a45783a831" d="M109.293,31.5943A78.47248,78.47248,0,0,0,59.4751,49.3501l55.5854,55.5869.8135,14.1465-13.8779-1.1963L46.6689,62.5591A78.81515,78.81515,0,1,0,109.293,31.5943Z"/>
          <path class="ee6e55f2-7a77-4e04-a6cb-9638a80c08eb" d="M109.293,45.5347A64.5858,64.5858,0,0,0,69.38921,59.2642L115.0605,104.937l.8135,14.1465-13.8779-1.1963L56.6353,72.5254A64.87311,64.87311,0,1,0,109.293,45.5347Z"/>
          <polygon points="103.793 114.027 37.798 48.031 31.833 50.056 17.12 35.342 28.636 31.518 32.461 20.002 47.175 34.715 45.142 40.673 111.155 106.688 111.616 114.702 103.793 114.027"/>
          <polygon class="a35586bf-8661-4aec-998c-b3a45783a831" points="32.9 21.854 29.427 32.309 18.972 35.781 32.101 48.91 38.065 46.884 104.241 113.062 110.551 113.606 110.178 107.126 43.994 40.94 46.027 34.982 32.9 21.854"/>
          <path class="a35586bf-8661-4aec-998c-b3a45783a831" d="M109.293,59.7427a50.41757,50.41757,0,0,0-29.7559,9.6694l35.5234,35.5249.8135,14.1465-13.8779-1.1963L66.852,82.7427a50.66549,50.66549,0,1,0,42.441-23Z"/>
          <path class="ee6e55f2-7a77-4e04-a6cb-9638a80c08eb" d="M109.293,73.8296A36.38747,36.38747,0,0,0,89.6699,79.545l25.3906,25.392.8135,14.1465-13.8779-1.1963L77.1284,93.0191A36.57174,36.57174,0,1,0,109.293,73.8296Z"/>
          <path class="a35586bf-8661-4aec-998c-b3a45783a831" d="M109.293,87.9927a22.28708,22.28708,0,0,0-9.19779,1.9775L115.0605,104.937l.8135,14.1465-13.8779-1.1963L87.8818,103.773A22.41927,22.41927,0,1,0,109.293,87.9927Z"/>
          <path class="ee6e55f2-7a77-4e04-a6cb-9638a80c08eb" d="M108.5088,98.3853l6.2529,6.5967,1.1123,14.1015-13.8779-1.1963-3.42289-3.4228c1.87259,4.2119,4.74469,7.6465,10.68459,7.9814,7.2363.4082,12.0313-5.3867,12.0313-12.0302C121.2891,103.7871,115.1289,98.4141,108.5088,98.3853Z"/>
        </g>
      </g>
    </g>
  </g>
</svg>
