<svg width="63" height="63" viewBox="0 0 63 63" fill="none" xmlns="http://www.w3.org/2000/svg">
<path fill-rule="evenodd" clip-rule="evenodd" d="M31.5 58.5C45.397 58.5 58.5 45.397 58.5 31.5C58.5 17.603 45.397 4.5 31.5 4.5C17.603 4.5 4.5 17.603 4.5 31.5C4.5 45.397 17.603 58.5 31.5 58.5ZM63 31.5C63 48.897 48.897 63 31.5 63C14.103 63 0 48.897 0 31.5C0 14.103 14.103 0 31.5 0C48.897 0 63 14.103 63 31.5Z" fill="#3E46A1"/>
<path fill-rule="evenodd" clip-rule="evenodd" d="M31.5 45.5C38.2816 45.5 45.5 38.2816 45.5 31.5001C45.5 24.7185 38.2816 17.5 31.5 17.5C24.7184 17.5 17.5 24.7185 17.5 31.5001C17.5 38.2816 24.7184 45.5 31.5 45.5ZM50.0103 31.5001C50.0103 41.723 41.7229 50.0104 31.5 50.0104C21.277 50.0104 12.9897 41.723 12.9897 31.5001C12.9897 21.2771 21.277 12.9897 31.5 12.9897C41.7229 12.9897 50.0103 21.2771 50.0103 31.5001Z" fill="#3E46A1"/>
<path d="M31.5 36.3712C34.1902 36.3712 36.3711 34.1903 36.3711 31.5C36.3711 28.8098 34.1902 26.6289 31.5 26.6289C28.8097 26.6289 26.6289 28.8098 26.6289 31.5C26.6289 34.1903 28.8097 36.3712 31.5 36.3712Z" fill="#3E46A1"/>
</svg>
